<?xml version="1.0" encoding="utf-8"?>
<svg viewBox="0 0 500 500" xmlns="http://www.w3.org/2000/svg" xmlns:bx="https://boxy-svg.com">
  <rect x="0.296" y="1.333" width="498.667" height="522.949" style="fill: rgb(96, 125, 228);"/>
  <path d="M 612.378 172.387 L 694.146 314.013 L 530.61 314.013 L 612.378 172.387 Z" style="fill: rgb(255, 255, 255);" transform="matrix(-0.645473, 0.763783, -0.763783, -0.645473, 1093.279924, -85.115045)" bx:shape="triangle 530.61 172.387 163.536 141.626 0.5 0 1@776042bf"/>
  <path d="M 158.4 267.005 L 227.442 317.167 L 201.07 398.331 L 115.73 398.331 L 89.358 317.167 Z" style="fill: rgb(255, 255, 255);" transform="matrix(0.981964, 0.189068, -0.189068, 0.981964, -92.223993, -81.427858)" bx:shape="n-gon 158.4 339.6 72.595 72.595 5 0 1@5ef17b06"/>
  <circle style="fill: rgb(255, 255, 255);" cx="37.539" cy="37.304" r="23.667"/>
  <path d="M 708.8 147.236 L 713.776 161.551 L 728.928 161.86 L 716.851 171.016 L 721.24 185.522 L 708.8 176.866 L 696.36 185.522 L 700.749 171.016 L 688.672 161.86 L 703.824 161.551 Z" style="fill: rgb(255, 255, 255);" transform="matrix(-0.951444, 0.307822, -0.307822, -0.951444, 1132.794573, 10.29485)" bx:shape="star 708.8 168.4 21.164 21.164 0.4 5 1@5eefb855"/>
  <rect x="85.579" y="154.657" width="25.466" height="51.525" style="fill: rgb(255, 255, 255);"/>
  <rect x="379.923" y="329.961" width="24.874" height="23.69" style="fill: rgb(255, 255, 255);"/>
  <path style="fill: rgb(255, 255, 255);" transform="matrix(0.740302, 0, 0, 0.740302, -88.152185, -3.767358)" d="M 280.8 464.4 A 16.971 16.971 0 1 1 264 449.829 L 264 466.8 Z" bx:shape="pie 264 466.8 0 16.971 81.87 360 1@ce159552"/>
  <path d="M 108.972 334.128 L 204.537 499.652 L 13.407 499.652 L 108.972 334.128 Z" style="fill: rgb(255, 255, 255);" transform="matrix(0.894033, -0.448001, 0.448001, 0.894033, -247.73093, 151.152239)" bx:shape="triangle 13.407 334.128 191.13 165.524 0.5 0 1@15635aff"/>
  <path d="M 785.6 549.907 L 820.699 566.81 L 829.367 604.79 L 805.078 635.247 L 766.122 635.247 L 741.833 604.79 L 750.501 566.81 Z" style="fill: rgb(255, 255, 255);" transform="matrix(0.885749, 0.464164, -0.464164, 0.885749, 46.6601, -396.944891)" bx:shape="n-gon 785.6 594.8 44.893 44.893 7 0 1@614967ef"/>
</svg>